<svg id="archgard_letras" data-name="archgard letras" xmlns="http://www.w3.org/2000/svg" xmlns:xlink="http://www.w3.org/1999/xlink" viewBox="0 0 852.14 266.46"><defs><style>.cls-1{fill:url(#linear-gradient);}.cls-2{fill:url(#linear-gradient-2);}.cls-3{fill:#e6e7e8;fill-rule:evenodd;}</style><linearGradient id="linear-gradient" x1="747.54" y1="727.88" x2="668.16" y2="594.02" gradientUnits="userSpaceOnUse"><stop offset="0.01" stop-color="#f99f1c"/><stop offset="1" stop-color="#ef4129"/></linearGradient><linearGradient id="linear-gradient-2" x1="1252.24" y1="506.63" x2="1172.82" y2="372.81" gradientUnits="userSpaceOnUse"><stop offset="0" stop-color="#ef4129"/><stop offset="0.99" stop-color="#f99f1c"/></linearGradient></defs><title>AG_Isologo_GreyBlueBackground</title><path class="cls-1" d="M533.93,682.2l2.73-3.06a80.24,80.24,0,0,1,8.79-7.95,96.8,96.8,0,0,1,15.74-9.81c3.21-1.61,6.71-3.19,10.46-4.68,1.87-.76,3.82-1.47,5.84-2.1s4.08-1.32,6.21-1.91c4.25-1.25,8.72-2.31,13.37-3.32s9.51-1.67,14.5-2.3A237.81,237.81,0,0,1,643,645.13c5.44,0,11,.11,16.53.33l8.4,0.4c2.8,0.19,5.62.44,8.43,0.71,11.26,1.06,22.66,2.49,33.86,4,11.18,1.73,22.2,3.53,33,5l16,2.09c5.25,0.68,10.43,1.21,15.51,1.61,10.16,0.71,19.95,1.27,29.17,1a185.12,185.12,0,0,0,25.82-2.48c2-.35,3.92-0.71,5.79-1.17l2.79-.64,2.7-.7,2.65-.67,2.55-.76c1.69-.48,3.32-1,4.86-1.57a135,135,0,0,0,16-6.69c2.19-1.06,4.09-2.11,5.76-3s3.1-1.7,4.21-2.4l3.51-2.08,0.88,1-3.11,2.63c-1,.88-2.27,1.91-3.82,3.06L872,646.64l-2.89,2a121.09,121.09,0,0,1-37.24,17.07,154.82,154.82,0,0,1-27,4.75,229.14,229.14,0,0,1-30.59.65c-21.22-.83-43.62-4.08-65.92-7.29s-44.63-6.1-65.7-6.84-40.79.4-57.26,3.76a146.94,146.94,0,0,0-22,6.18,109.8,109.8,0,0,0-16,7.47,95,95,0,0,0-9.4,6.33l-3.16,2.53Z" transform="translate(-533.93 -416.78)"/><path class="cls-2" d="M1038.62,461l2.73-3.06a79.15,79.15,0,0,1,8.78-8,96.53,96.53,0,0,1,15.74-9.82c3.21-1.62,6.7-3.2,10.46-4.7q2.81-1.15,5.84-2.1c2-.68,4.08-1.32,6.21-1.91,4.25-1.25,8.72-2.32,13.37-3.33s9.51-1.67,14.5-2.3,10.13-1.1,15.38-1.49,10.62-.44,16.05-0.46,11,0.1,16.54.32l8.39,0.39c2.8,0.23,5.62.45,8.43,0.73,11.26,1.05,22.67,2.47,33.86,4,11.18,1.76,22.2,3.52,33,5l16,2.11c5.25,0.68,10.43,1.2,15.52,1.61,10.16,0.7,19.95,1.28,29.17,1a182.9,182.9,0,0,0,25.82-2.49,149.8,149.8,0,0,0,21.35-5.51,134.58,134.58,0,0,0,15.95-6.71c2.18-1.07,4.09-2.11,5.76-3s3.1-1.7,4.21-2.41l3.51-2.08,0.89,1-3.11,2.63c-1,.88-2.27,1.91-3.82,3.06l-2.47,1.88-2.89,2a121.14,121.14,0,0,1-37.24,17.08,154.65,154.65,0,0,1-27,4.76,229.5,229.5,0,0,1-30.59.66c-21.22-.82-43.63-4.06-65.93-7.27s-44.63-6.09-65.7-6.82-40.79.41-57.26,3.78a145.82,145.82,0,0,0-22,6.18,109.54,109.54,0,0,0-16,7.47,94.64,94.64,0,0,0-9.39,6.33l-3.17,2.53Z" transform="translate(-533.93 -416.78)"/><path class="cls-3" d="M988.48,594.73c-13.58-12-12.83-23.57,2.11-35-4.92-8.54-7-17.72-4.27-27.53,4.41-16.08,20.66-27,38.29-24.52,12.23,1.74,24.4,1.56,36.63,1.69,4.26,0,4.93,0,4.93,0l0.77,7.35h-19.48c8.68,9.48,11.57,19.51,9.71,30.68a30.66,30.66,0,0,1-9.73,17.75c-13.7,12.62-33.45,12.83-52,.49-5.17,2.14-8.35,5.79-8.34,11.71,0,5.52,3.36,9.83,9.09,12.07,3.74,1.46,7.65,1.33,11.54,1.43,11.7,0.28,23.42-.71,35.09.59,12.91,1.43,22.72,9.09,25.69,19.86a31.44,31.44,0,0,1-10.74,33.48,40.91,40.91,0,0,1-20.77,8.74c-13.88,1.68-27.79,2.35-41.26-2.65-18.64-6.93-27.16-25-20-42C978.27,602.74,982.64,598.4,988.48,594.73Zm32.62,52.46c10.15,0.14,20-1,28.72-6.84,8.9-6,13-16.48,10.38-26.18-2.39-8.89-10.17-15.19-20.72-15.57-12.23-.45-24.52-0.67-36.72.05C986.29,599.62,977.4,615,984,630c2.66,6.06,7.39,10.13,13.27,12.9C1004.8,646.42,1012.87,647.29,1021.1,647.19Zm0.23-80.08c16,0,28.23-11.24,28.18-26-0.05-14.52-12.29-26.22-27.52-26.29-16.23-.08-28.89,11.44-28.78,26.17C993.3,555.91,1005.31,567,1021.33,567.1Z" transform="translate(-533.93 -416.78)"/><path class="cls-3" d="M1339.68,580.87c-10.43,13-23.44,19.46-39.47,19.29-12.38-.14-23.31-4.53-31.89-13.69-17.45-18.61-15.94-51.18,2.53-68,15.4-14,48.15-18.24,68.48,9.08V465.33h8.55V598.16h-8.19V580.87Zm-74.87-27.29c0,22.72,15.7,38.9,37.63,38.84,20.72-.06,37.16-17.57,37-39.38-0.17-21-16.74-37.91-37.25-38C1280.56,515,1264.79,531.26,1264.82,553.59Z" transform="translate(-533.93 -416.78)"/><path class="cls-3" d="M952.87,598H944.4s0-35.56-.07-50.25c0-17.66-9.12-30.07-23.3-32-18.6-2.49-34.24,7.59-38.79,24.93a61.15,61.15,0,0,0-1.54,15.48c0,11.89-.07,41.86-0.07,41.86h-8.25V465h8.23v62c3.17-3.7,5.21-6.73,7.86-9.08,12.53-11.12,27.17-13.68,42.57-8.12,15.05,5.44,21.37,17.87,21.72,33.18C953.19,561.24,952.87,579.43,952.87,598Z" transform="translate(-533.93 -416.78)"/><path class="cls-3" d="M1150.67,544.44c0.7-15.86-6.24-26.13-18.91-28.73-16.39-3.35-28.39,3.22-34.41,19-2.61.57-4.93-.51-7.28-1.45,0.28-10.16,9-20.29,20.91-24a45.91,45.91,0,0,1,23.15-1.12c15.1,3.13,24.52,14.4,24.89,30,0.28,11.89.08,23.79,0.12,35.68,0.09,20.93,15,15.16,15,15.16l1.12,8.08s-21,6.71-24.68-14.91c-2,.53-2.64,2.51-3.81,3.84-10.83,12.39-29.86,17.61-45.27,12.13-10-3.54-16.08-10.45-17.14-21.2-1-10.3,3.94-19,13.66-24.09,11-5.8,23.24-5.91,35.23-7C1138.91,545.34,1144.62,544.92,1150.67,544.44Zm-0.32,6.83c-11.66.81-23.1,1.35-34.47,3a42.07,42.07,0,0,0-11.16,3.21c-8.41,3.79-12.13,9.74-11.56,18.31,0.53,7.9,5.25,13.37,14,15.86C1126,597,1155.14,583.63,1150.36,551.27Z" transform="translate(-533.93 -416.78)"/><path class="cls-3" d="M839.12,567.63l7,2.11c-2.39,17.1-22.39,30.91-43.37,30.2-25-.85-43.28-18-45.33-42.58a45.69,45.69,0,0,1,36.82-49.22c23.22-4.76,45.42,7.34,52.23,28.74-2.14,1.7-4.76,2.24-7.35,2.75-12.45-21.18-27-28.3-46.32-22.77-16.73,4.78-27.08,19.48-26.7,37.92,0.38,18.23,11.27,31.9,28.86,36.21C813.33,595.47,828.58,587.57,839.12,567.63Z" transform="translate(-533.93 -416.78)"/><path class="cls-3" d="M696,598.17V509.92a15.09,15.09,0,0,1,8.48-.06v21.27c10.39-16.46,24.5-24.11,43.87-21.92-0.42,2-1.11,8-1.11,8a72,72,0,0,0-8.19,0c-19.15,2.18-32.7,16.37-34,36.59-0.82,12.41-.57,44.34-0.57,44.34H696Z" transform="translate(-533.93 -416.78)"/><path class="cls-3" d="M1195.91,598.17V509.92a15.08,15.08,0,0,1,8.48-.06v21.27c10.39-16.46,24.5-24.11,43.87-21.92-0.41,2-1.11,8-1.11,8a71.86,71.86,0,0,0-8.19,0c-19.15,2.18-32.7,16.37-34,36.59-0.82,12.41-.57,44.34-0.57,44.34h-8.43Z" transform="translate(-533.93 -416.78)"/><path class="cls-3" d="M563.26,562.37l-16.78,35.79c-3.18.18-6.08,0.58-9.63-.42,21.47-46,64.43-137.92,64.43-137.92h7.34S651.37,551.5,673,597.9h-9.81l-16.71-35.53H563.26Zm41.64-90-37.65,81.25h75.32Z" transform="translate(-533.93 -416.78)"/></svg>